PathFileType	4	(X/Y/Z)	pose_F01_0-95.trc
DataRate	CameraRate	NumFrames	NumMarkers	Units	OrigDataRate	OrigDataStartFrame	OrigNumFrames
30	30	9	21	m	30	59	95
Frame#	Time	CHip			RHip			RKnee			RAnkle			RBigToe			RSmallToe			RHeel			LHip			LKnee			LAnkle			LBigToe			LSmallToe			LHeel			Neck			Nose			RShoulder			RElbow			RWrist			LShoulder			LElbow			LWrist			
		X1	Y1	Z1	X2	Y2	Z2	X3	Y3	Z3	X4	Y4	Z4	X5	Y5	Z5	X6	Y6	Z6	X7	Y7	Z7	X8	Y8	Z8	X9	Y9	Z9	X10	Y10	Z10	X11	Y11	Z11	X12	Y12	Z12	X13	Y13	Z13	X14	Y14	Z14	X15	Y15	Z15	X16	Y16	Z16	X17	Y17	Z17	X18	Y18	Z18	X19	Y19	Z19	X20	Y20	Z20	X21	Y21	Z21	
59	1.9666666666666666	-0.16230646089017617	1.8389000421573114	-0.553665155735983	-0.1777840610240661	1.834589609362759	-0.4923859601634369	-0.16750804232586916	1.7078097257954945	-0.4915206562402288	-0.13563096214246803	1.5933879737999213	-0.4552466375644782	-0.16607899212675614	1.5596950639774925	-0.47190802061947357	-0.16315324241163573	1.5674738545639157	-0.4448244876708004	-0.12485465314325915	1.5851715013958392	-0.4567682191195622	-0.1491394075431594	1.8409074445058562	-0.6069955322348347	-0.1552439145356909	1.7134487691500708	-0.5894083366330991	-0.13045949576167765	1.5900263956328147	-0.5570352648200516	-0.16208387845792807	1.5495236650166655	-0.5838568783678354	-0.14780331345318784	1.555176792386386	-0.5991780238525778	-0.12090138086510259	1.5792083419090808	-0.5529227024620682	-0.1431302227796576	1.9908107101871986	-0.5689073654349032	-0.165812682781506	2.0559545034791893	-0.5969036918169455	-0.1571898095623924	1.9844732419090836	-0.49253852434523127	-0.1661196698805735	1.9071041580287402	-0.44947162092591125	-0.20426782547179861	1.94271148405055	-0.4527518387220471	-0.1238429531695543	1.997994508658366	-0.652235626116216	-1.4530457607868363	1.8755697376145788	0.7021544281129917	-0.12141303550677118	2.02481722750502	-0.7347629989300499
60	2.0	-0.1601931865875684	1.8271249526274413	-0.554423461827691	-0.1746179232290697	1.8255313339526589	-0.4987297044164574	-0.16681283874156558	1.6959726717064447	-0.48219716024914017	-0.13236463094905818	1.591625791510868	-0.4543898700775155	-0.16714882276878096	1.5572709914174212	-0.47494387525913856	-0.16407171858053543	1.5670535207084795	-0.4495077766256431	-0.12121764514892773	1.5812713759274732	-0.456510191116403	-0.1450591261751937	1.8301392266223762	-0.610158259553144	-0.1694847834897213	1.7116986749054912	-0.6082465331882378	-0.13251401730457674	1.5913753603077119	-0.5633827409368872	-0.16315641743438242	1.5501073450557634	-0.5871891653545694	-0.1486663189786625	1.5548684925181842	-0.6025470823466146	-0.12143346138647967	1.5822015730698609	-0.5524135362371638	-1.809426523657479	1.892023957461032	1.2833437028411327	-0.16524168946573672	2.0461249284718033	-0.5921715328201645	-0.16328715051957812	1.9778346257533908	-0.49375060305807583	-0.18920358293522857	1.912723023213883	-0.45783640290398003	-0.2015332513910167	1.9592279051804167	-0.44797014491450293	-0.1209749292285788	1.9841884665586174	-0.6494658383762485	-0.11508438290737404	1.9305221519635862	-0.7232091891481541	-0.1252174532693184	1.9785102129913599	-0.7065482155582121
61	2.033333333333333	-0.15789689574565655	1.8366707752090072	-0.5581280145759759	-0.17216720297803573	1.8309593247389706	-0.5019482768703517	-0.16540893032732532	1.7096848897974863	-0.48546255532173627	-0.1357641623036275	1.5940536101623497	-0.4644201545319516	-0.16757843037436426	1.5596565678674972	-0.4745198672160123	-0.16499019474943513	1.5666331868530432	-0.4541910655804859	-0.12331520936349959	1.5842486602324353	-0.4588693233652742	-0.1472055921241258	1.8425323461651224	-0.6216393517404218	-0.166753367493547	1.7160422299841835	-0.6201162476369572	-0.13710000639189715	1.5941947225248752	-0.5807398980745234	-0.1634796312474534	1.5516562798409292	-0.5869790380004317	-0.15083020863201083	1.5598928801333347	-0.6090192683817167	-0.1243939797223694	1.5890107860950962	-0.5632426377850182	-0.13704792152602122	1.9922847846481986	-0.5763329610388032	-0.16512317928028758	2.054388750361505	-0.5939325121902337	-0.1573254865695912	1.9883672637659497	-0.5031475601238987	-0.18617613826562587	1.9163997304110467	-0.44010926606544026	-0.19879867731023476	1.9757443263102836	-0.44318845110695876	-0.11665653513420805	1.996484272634232	-0.656393424660144	-1.4522344447867883	1.8870248874272553	0.7037794408037046	-0.12415624670217129	2.0106054071470547	-0.728230083543764
62	2.066666666666667	-0.1605427084888158	1.8490433885895527	-0.5696941301043331	-0.17126382416678002	1.8441015486473287	-0.5096125363582109	-0.17103423447867594	1.7132088041423268	-0.49747566129346504	-0.14323481369546207	1.599663592489795	-0.46979150036378803	-0.16752654783424298	1.559274442847073	-0.47459278173379194	-0.16590867091833483	1.566212852997607	-0.4588743545353286	-0.13199904539004823	1.5961495247847854	-0.4690094224980386	-0.14967722982710274	1.8501578967584482	-0.6324180474379953	-0.16332891548797845	1.720344445443251	-0.6115964248630265	-0.12845167850658046	1.6002920353914072	-0.5907643423975552	-0.15489536416481897	1.5560259753045276	-0.5961108876253112	-0.14453309186965346	1.565496350069628	-0.6161692068771558	-0.11788934216992983	1.5951036688701223	-0.5711842095993157	-0.1372046002593273	1.998726160775646	-0.5890858553336177	-0.16247366863481574	2.0607598126208595	-0.6052376826771354	-0.15188359600607573	1.9934724422860048	-0.5137301119324599	-0.15580317295794727	1.9181720139515226	-0.4537229519424945	-0.18550540396903378	1.9573863138802745	-0.4735075351267037	-0.11801727868566461	2.0032111483155184	-0.6632394683442064	-0.7824470809990183	1.9652742532867427	-0.04030258664400488	-0.12309504013502418	2.0427006013027493	-0.7499119515293158
63	2.1	-0.15950747690442046	1.8478014794481734	-0.5751996626053867	-0.171219546013252	1.8440988900058781	-0.5097180151024157	-0.1884984634690097	1.7127195550901224	-0.5048179109032763	-0.1457928356346488	1.601724376968723	-0.4723068722780983	-0.17385404109222533	1.559114677998821	-0.47705326420149435	-0.1668271470872345	1.5657925191421704	-0.46355764349017137	-0.13420718693823452	1.59507279402736	-0.4798439849385132	-0.14343395642707274	1.8490994057273815	-0.6394376244493166	-0.15722104687039304	1.7175093978238083	-0.6093214427727265	-0.11858818874038345	1.59533952028406	-0.6049721528487747	-0.14898737668208537	1.5520649824881236	-0.5931559349853751	-0.13741593622962117	1.5587081274231729	-0.6183770787855225	-0.10569231408202923	1.5882813278937922	-0.5961187216276138	-0.134850368287242	1.9950049722084227	-0.5997802241461494	-0.1605000484765544	2.058526717007067	-0.6072683566279894	-0.14607655088525415	1.9876062851738696	-0.5197763806303276	-0.14514649278004582	1.9094678006787316	-0.45167904164007044	-0.1740275859654227	1.936207209806914	-0.474703294334527	-0.11475391246933045	2.003637962180061	-0.6829911606974962	-0.11265971721124825	2.0435236191462303	-0.7843846140917143	-0.12203383356787706	2.0747957954584444	-0.7715938195148676
64	2.1333333333333333	-0.15368991748930255	1.8300782616165285	-0.5918607632397364	-0.16407027096077245	1.8271165432905014	-0.5198055442805813	-0.197881620801427	1.7081094302098887	-0.5072909277402211	-0.15044362696340682	1.5935791162800057	-0.47062694847653797	-0.18487175627234476	1.554895112509131	-0.4693402310716572	-0.1677456232561342	1.5653721852867342	-0.4682409324450141	-0.14064821762818505	1.5910032024977163	-0.47229850951022845	-0.13789752257480575	1.8320303618107157	-0.6475416505082073	-0.14701645547418518	1.7070387295972833	-0.623157425351948	-0.11017099943623408	1.588939694817717	-0.6128892909448371	-0.1485310535242971	1.5509242101987655	-0.6021534098392739	-0.13730171284152037	1.5575709934439332	-0.6186313297902557	-0.09697974759996325	1.576694743642539	-0.6041533467613105	-1.7509043497794141	1.8900826915055795	1.183502543031223	-0.16153339562361752	2.0470164241427105	-0.6083664386302697	-0.14057201667520047	1.9770578652184398	-0.5270017260584738	-0.1321323859977591	1.8988441258195314	-0.4876963374772823	-0.16877381485935528	1.9182694208495599	-0.48860211615581217	-0.118784844286132	1.9962235171090035	-0.6864741114903204	-0.11506682498910095	2.04737450022379	-0.783107377731975	-0.12097262700072994	2.106890989614139	-0.7932756875004194
65	2.1666666666666665	-0.15226761292478028	1.826654770221754	-0.5936563988663928	-0.16634857135311776	1.825162497146173	-0.5347820819786249	-0.19721117275582548	1.7048587473234404	-0.5121732357244871	-0.14648652521034308	1.5942547681007786	-0.47533663134932314	-0.18467853182750554	1.5566488011961583	-0.4785726545139937	-0.1686640994250339	1.564951851431298	-0.4729242213998568	-0.1352291022040186	1.5900410859895477	-0.48235594023957257	-0.13929917209792453	1.828640520769924	-0.6499448341209801	-0.14380851186292035	1.7033487373892748	-0.6260180007513461	-0.11151708499802783	1.586165242954739	-0.6069943666453532	-0.14825210708635433	1.5521898662920597	-0.6028824112566394	-0.13702488704451232	1.5558406498374449	-0.6188450327120337	-0.0984534177409357	1.574908742689807	-0.5977879662927305	-1.7483775908083685	1.8879581149709024	1.1799953309144802	-0.1615910323315519	2.0445099115342833	-0.607966229761976	-0.14279455560806475	1.9721899090493429	-0.5244971254160898	-0.14610970577312032	1.8941006795459008	-0.500602126953816	-0.17266999222221155	1.9206274717667629	-0.4751311847972608	-0.11965759122830388	1.9867528311924114	-0.6876618874002882	-0.11414575376487225	2.0101499331326362	-0.7633167499923973	-0.44262543281895406	2.0494294561470503	-0.4384720319268167
66	2.2	-0.15432045686507573	1.8324428569217208	-0.5955241943179127	-0.17019102100544684	1.8312512711309228	-0.5346614107578669	-0.18175415462981565	1.7079002565833232	-0.516215388080588	-0.14250970908460703	1.5981921625541746	-0.5065771514514401	-0.175369909796972	1.5582492068242324	-0.5014113316597633	-0.1695825755939336	1.5645315175758616	-0.47760751035469956	-0.1334205108528148	1.59350498798804	-0.5028460036766187	-0.14055784454142844	1.83524466849448	-0.6488839740609861	-0.141454767756134	1.711541819689243	-0.6295127066278469	-0.11472434890829443	1.5928743410307487	-0.608573078681866	-0.15095531186800115	1.5492774572740229	-0.5992367909639885	-0.13829200408575182	1.5550407700404196	-0.6211938568682531	-0.10313786540871189	1.5802292226088746	-0.6064908752897886	-1.7546722128146064	1.8927678754670845	1.1881035345453237	-0.1626516272820521	2.0534897967731447	-0.6042891794153027	-0.14235063466888498	1.9807338423562149	-0.5251587248515845	-0.15317115748467497	1.9072295981264988	-0.4897670407479649	-0.17792717996738666	1.93702474568254	-0.4509375146538404	-0.11417316562890777	1.9981875777694864	-0.690953327372965	-0.11322468254064354	1.972925366041482	-0.7435261222528194	-0.7642782386371781	1.9919679226799616	-0.083668376353214
67	2.2333333333333334	-0.16007914129008424	1.8492826709082881	-0.5875210132080708	-0.1701404350340712	1.8479475663840552	-0.5246270142035259	-0.17263332375924784	1.7132755467064633	-0.5223607371037448	-0.13672276746887868	1.5980968454467732	-0.5128595069511775	-0.16494896456621777	1.5586123759808785	-0.5170307368526996	-0.1624520520675982	1.5626531819871197	-0.4851093646431374	-0.12920143407144336	1.5893683252666828	-0.5154576532021696	-0.14447972325012334	1.8521924822398113	-0.6431021579823161	-0.1539613034738182	1.7219118971884986	-0.617706940154607	-0.11847277497360416	1.600805891111331	-0.6058765936165261	-0.1462241703422105	1.553314162185621	-0.5998154798824931	-0.1332652976090229	1.5605661876900696	-0.6225250692418915	-0.10821775734590611	1.5939192098095838	-0.6068956364985328	-0.1326340032878976	1.9972608382299624	-0.6021210415431799	-0.1624521397303897	2.060857332525248	-0.6053970851619669	-0.14665264803131448	1.992482020388288	-0.5235778658590905	-0.15290148199749057	1.9162576304678745	-0.47044215512480686	-0.19013416994613525	1.96374426702117	-0.41933963970232124	-0.11248179750299582	2.0028857329270293	-0.6849728543773176	-0.11230361131641484	1.935700798950328	-0.7237354945132417	-1.0859310444554022	1.9345063892128729	0.2711352792203887
